<svg width="60" height="60" viewBox="0 0 60 60" fill="none" xmlns="http://www.w3.org/2000/svg">
<g id="face">
<circle id="Ellipse" cx="30" cy="30" r="23.5" fill="#F5CEE0" stroke="#1A2947" stroke-width="2"/>
<path id="Union" fill-rule="evenodd" clip-rule="evenodd" d="M26.6078 16.8799C26.0555 15.9233 24.8323 15.5956 23.8757 16.1479C22.9192 16.7001 22.5914 17.9233 23.1437 18.8799L26.8937 25.3751C27.446 26.3317 28.6692 26.6594 29.6257 26.1071C30.5823 25.5549 30.9101 24.3317 30.3578 23.3751L26.6078 16.8799ZM36.3506 11.2549C35.7983 10.2983 34.5751 9.97057 33.6185 10.5229C32.6619 11.0751 32.3342 12.2983 32.8865 13.2549L36.6365 19.7501C37.1888 20.7067 38.4119 21.0344 39.3685 20.4821C40.3251 19.9299 40.6529 18.7067 40.1006 17.7501L36.3506 11.2549ZM20.6497 33.3086C20.0974 32.352 20.4252 31.1288 21.3818 30.5766C22.3383 30.0243 23.5615 30.352 24.1138 31.3086C26.1504 34.836 30.6608 36.0446 34.1882 34.0081C35.1448 33.4558 36.368 33.7835 36.9203 34.7401C37.4726 35.6967 37.1448 36.9199 36.1882 37.4722C30.7477 40.6133 23.7908 38.7492 20.6497 33.3086Z" fill="#1A2947"/>
</g>
</svg>
