<svg width="60" height="60" viewBox="0 0 60 60" fill="none" xmlns="http://www.w3.org/2000/svg">
<g id="Star">
<path id="Star_2" d="M32.425 7.32142C31.9851 6.36151 31.0494 5.94528 30.1804 6.00589C29.3193 6.06595 28.4664 6.58882 28.0657 7.51901L24.4489 15.9152C24.3371 16.1748 24.0675 16.2619 23.9044 16.2105L15.5875 13.589C13.6702 12.9846 11.8232 14.9463 12.5667 16.8255L15.7688 24.9179C15.8296 25.0714 15.7654 25.3441 15.5112 25.4747L7.36604 29.659C6.46535 30.1217 6 31.0071 6 31.8716C6 32.7446 6.48393 33.6465 7.4725 34.0165L15.6177 37.0646C15.6891 37.0913 15.7377 37.14 15.7659 37.2061C15.7949 37.274 15.8061 37.3727 15.7623 37.4893L12.5602 46.0283C11.8133 48.0201 13.7762 49.8299 15.7008 48.9549L24.0177 45.1732C24.1328 45.1208 24.2342 45.1249 24.3059 45.1496C24.3756 45.1736 24.4273 45.2192 24.4583 45.2869L28.075 53.1786C28.5149 54.1385 29.4506 54.5547 30.3196 54.4941C31.1807 54.434 32.0336 53.9112 32.4343 52.981L36.0511 44.5848C36.1629 44.3252 36.4325 44.2381 36.5956 44.2895L44.9125 46.911C46.8298 47.5154 48.6768 45.5537 47.9333 43.6745L44.7312 35.5821C44.6704 35.4286 44.7346 35.1559 44.9888 35.0253L53.134 30.841C54.0346 30.3783 54.5 29.4929 54.5 28.6284C54.5 27.7554 54.0161 26.8535 53.0275 26.4835L44.8823 23.4354C44.8109 23.4087 44.7623 23.36 44.7341 23.2939C44.7051 23.226 44.6939 23.1273 44.7377 23.0107L47.9398 14.4717C48.6867 12.4799 46.7238 10.6701 44.7992 11.5451L36.4823 15.3268C36.3672 15.3792 36.2658 15.3751 36.1941 15.3504C36.1244 15.3264 36.0727 15.2808 36.0417 15.2131L32.425 7.32142Z" fill="#E08863" stroke="#1A2947" stroke-width="2"/>
</g>
</svg>
